# xmcd CD database file
#
# Track frame offsets:
#	150
#	19253
#	38972
#	64507
#	83355
#	101378
#	118740
#	133461
#	154046
#	172143
#	189755
#	211892
#
# Disc length: 3055 seconds
#
# Revision: 2
# Processed by: cddbd v1.5.2PL0 Copyright (c) Steve Scherf et al.
# Submitted via: jetAudio 7
#
DISCID=9a0bed0c
DTITLE=Gregg Martinez - Big Bad Daddy
DYEAR=1900
DGENRE=Blues
TTITLE0=Mark My Words
TTITLE1=Big Bad Daddy
TTITLE2=Sing Me Some Blues
TTITLE3=I Don't Deserve You
TTITLE4=Back to the Bayou
TTITLE5=Put Your Rock Down
TTITLE6=Everyday Will Be Like A Holiday
TTITLE7=Might Mighty
TTITLE8=Katrina
TTITLE9=No Woman So Fine
TTITLE10=Most of All
TTITLE11=It's All Good
EXTD=
EXTT0=
EXTT1=
EXTT2=
EXTT3=
EXTT4=
EXTT5=
EXTT6=
EXTT7=
EXTT8=
EXTT9=
EXTT10=
EXTT11=
PLAYORDER=
